<svg xmlns="http://www.w3.org/2000/svg" width="24" height="24" viewBox="0 0 24 24" fill="none"><circle cx="12" cy="12" r="10" fill="#F2C94C"/><path fill="#333" d="M10 8v2H8V8z"/><circle cx="10" cy="10" r="1" fill="#F2C94C" transform="rotate(90 10 10)"/><path fill="#333" d="M15 16v-2h2v2z"/><circle cx="15" cy="14" r="1" fill="#F2C94C" transform="rotate(-90 15 14)"/><path fill="#333" d="M7 16c0 .5523.44772 1 1 1s1-.4477 1-1H7Zm1-8V7H7v1h1Zm5 5c0 .5523.4477 1 1 1s1-.4477 1-1h-2Zm-4 3V8H7v8h2Zm3.2929-6.29289c.3778.37779.5517.73879.6334.98409.0415.1244.06.2215.0681.2783.0041.0284.0055.0463.0059.0521.0002.0029.0001.0027 0-.0008-.0001-.0018-.0001-.0044-.0002-.0078 0-.0018-.0001-.0037-.0001-.0059v-.0061c0-.0005 0-.001 1-.001s1-.0005 1-.001v-.0076c-.0001-.0031-.0001-.0065-.0002-.0102-.0001-.0073-.0003-.0156-.0006-.0249a1.871888 1.871888 0 0 0-.0034-.0677c-.0035-.0528-.0099-.1209-.0215-.2019-.0231-.1619-.0671-.3773-.1506-.6279-.1683-.50473-.4944-1.14374-1.1166-1.76591l-1.4142 1.41422ZM13 11v2h2v-2h-2ZM8 9h3V7H8v2Zm3-1c0 1-.0005 1-.001 1h-.0009c-.0006 0-.0012 0-.0018-.00001a.344121.344121 0 0 1-.0034-.00002.467795.467795 0 0 1-.0059-.00007.422327.422327 0 0 1-.0078-.00018c-.0035-.00011-.0037-.00017-.0008.00002.0058.00038.0237.00179.0521.00583.0568.00812.1539.02665.2783.06811.2453.08177.6063.25559.9841.63343l1.4142-1.41422c-.6222-.62216-1.2612-.94834-1.7659-1.11657-.2506-.08354-.466-.12751-.6279-.15064-.081-.01158-.1491-.01799-.2019-.02151-.0264-.00176-.049-.0028-.0677-.00341a1.453386 1.453386 0 0 0-.0249-.0006 1.548833 1.548833 0 0 0-.0102-.00013c-.0016-.00001-.0031-.00002-.0045-.00002-.0007 0-.0014-.00001-.0021-.00001h-.001C11.0005 7 11 7 11 8Z"/><path stroke="#333" stroke-linecap="round" stroke-linejoin="round" stroke-width="2" d="M11 11v1.5s0 1.5 1 2.5 2.5 1 2.5 1H17V8"/></svg>
